# xmcd
# 
# Track frame offsets:
#     180
#     15397
#     30707
#     48769
#     68264
#     83939
#     101947
#     118513
#     135466
#     154077
#     169139
#     186496
# 
# Disc length: 2714
# 
# Revision: 3
# Processed by: cddbd v1.5.2PL0 Copyright (c) Steve Scherf et al.
# Submitted via: BonkEnc v1.0
# 
DISCID=930a980c
DTITLE=Grupo Pirraça - Tentação
DYEAR=0
DGENRE=Samba
TTITLE0=Demorou Para Abalar
TTITLE1=Começo Feliz
TTITLE2=Chega Mais
TTITLE3=Rei Pornô
TTITLE4=Jeito Provocador
TTITLE5=Agora Que Você Voltou
TTITLE6=Na Cara do Gol
TTITLE7=Vivendo Emoções
TTITLE8=Minha Outra Metade
TTITLE9=Tentação (Gulosa)
TTITLE10=Casar Pra Quê?
TTITLE11=Coisa de Cinema
EXTD=
EXTT0=
EXTT1=
EXTT2=
EXTT3=
EXTT4=
EXTT5=
EXTT6=
EXTT7=
EXTT8=
EXTT9=
EXTT10=
EXTT11=
PLAYORDER=
